# xmcd
#
# Track frame offsets:
#	150
#	19350
#	41100
#	59250
#	77700
#	91050
#	110625
#	126900
#	142275
#	161700
#	174225
#	194775
#	210825
#	228525
#	243525
#	263550
#	280200
#	302325
#	315375
#
# Disc length: 4403 seconds
#
# Revision: 0
# Processed by: cddbd v1.5.1PL0 Copyright (c) Steve Scherf et al.
# Submitted via: dBpowerAMP V4.0
#
DISCID=0d113113
DTITLE=Various Artist - Si tu supieras
DYEAR=2005
DGENRE=Blues
TTITLE0=Alejandro Fernandez - Track01
TTITLE1=Track02
TTITLE2=Track03
TTITLE3=Track04
TTITLE4=Track05
TTITLE5=Track06
TTITLE6=Track07
TTITLE7=Track08
TTITLE8=Track09
TTITLE9=Track10
TTITLE10=Track11
TTITLE11=Track12
TTITLE12=Track13
TTITLE13=Track14
TTITLE14=Track15
TTITLE15=Track16
TTITLE16=Track17
TTITLE17=Alejandro Fernandez - Track18
TTITLE18=Alejandro Fernandez - Track19
EXTD=
EXTT0=
EXTT1=
EXTT2=
EXTT3=
EXTT4=
EXTT5=
EXTT6=
EXTT7=
EXTT8=
EXTT9=
EXTT10=
EXTT11=
EXTT12=
EXTT13=
EXTT14=
EXTT15=
EXTT16=
EXTT17=
EXTT18=
PLAYORDER=
